{"title":"McFarland.USA.2015.1080p.BluRay.H264.AAC-RARBG","uid":11932571,"size":2661492083,"categoryP":"video","categoryS":"hd___movies","magnet":"?xt=urn:btih:454a6706a5f973032349318a5ee919ff2a1097da&amp;dn=McFarland.USA.2015.1080p.BluRay.H264.AAC-RARBG&amp;tr=udp%3A%2F%2Ftracker.openbittorrent.com%3A80&amp;tr=udp%3A%2F%2Fopen.demonii.com%3A1337&amp;tr=udp%3A%2F%2Ftracker.coppersurfer.tk%3A6969&amp;tr=udp%3A%2F%2Fexodus.desync.com%3A6969","seeders":1,"leechers":0,"uploader":"vickey1992","files":7,"time":1431851772,"description":"Video\nID                                       : 1\nFormat                                   : AVC\nFormat/Info                              : Advanced Video Codec\nFormat profile                           : &lt;a class=&quot;__cf_email__&quot; href=&quot;/cdn-cgi/l/email-protection&quot; data-cfemail=&quot;b8f0d1dfd0f8f48c9689&quot;&gt;[email&amp;#160;protected]&lt;/a&gt;&lt;script data-cfhash='f9e31' type=&quot;text/javascript&quot;&gt;\n/* &lt;![CDATA[ */!function(){try{var t=&quot;currentScript&quot;in document?document.currentScript:function(){for(var t=document.getElementsByTagName(&quot;script&quot;),e=t.length;e--;)if(t[e].getAttribute(&quot;data-cfhash&quot;))return t[e]}();if(t&amp;&amp;t.previousSibling){var e,r,n,i,c=t.previousSibling,a=c.getAttribute(&quot;data-cfemail&quot;);if(a){for(e=&quot;&quot;,r=parseInt(a.substr(0,2),16),n=2;a.length-n;n+=2)i=parseInt(a.substr(n,2),16)^r,e+=String.fromCharCode(i);e=document.createTextNode(e),c.parentNode.replaceChild(e,c)}t.parentNode.removeChild(t);}}catch(u){}}()/* ]]&gt; */&lt;/script&gt;\nFormat settings, CABAC                   : Yes\nFormat settings, ReFrames                : 4 frames\nCodec ID                                 : avc1\nCodec ID/Info                            : Advanced Video Coding\nDuration                                 : 2h 8mn\nBit rate                                 : 2 500 Kbps\nWidth                                    : 1 920 pixels\nHeight                                   : 808 pixels\nDisplay aspect ratio                     : 2.40:1\nFrame rate mode                          : Constant\nFrame rate                               : 23.976 fps\nColor space                              : YUV\nChroma subsampling                       : 4:2:0\nBit depth                                : 8 bits\nScan type                                : Progressive\nBits/(Pixel*Frame)                       : 0.067\nStream size                              : 2.25 GiB (92%)\nWriting library                          : x264 core 144 r2525M 40bb568\nEncoding settings                        : cabac=1 / ref=4 / deblock=1:-1:-1 / analyse=0x3:0x113 / me=umh / subme=9 / psy=1 / psy_rd=1.00:0.15 / mixed_ref=1 / me_range=24 / chroma_me=1 / trellis=2 / 8x8dct=1 / cqm=0 / deadzone=21,11 / fast_pskip=1 / chroma_qp_offset=-3 / threads=32 / lookahead_threads=4 / sliced_threads=0 / nr=0 / decimate=1 / interlaced=0 / bluray_compat=0 / constrained_intra=0 / bframes=3 / b_pyramid=2 / b_adapt=1 / b_bias=0 / direct=1 / weightb=1 / open_gop=0 / weightp=2 / keyint=250 / keyint_min=25 / scenecut=40 / intra_refresh=0 / rc_lookahead=50 / rc=2pass / mbtree=1 / bitrate=2500 / ratetol=1.0 / qcomp=0.60 / qpmin=0 / qpmax=69 / qpstep=4 / cplxblur=20.0 / qblur=0.5 / vbv_maxrate=31250 / vbv_bufsize=31250 / nal_hrd=none / filler=0 / ip_ratio=1.40 / aq=3:1.00\nEncoded date                             : UTC 1904-01-01 00:00:00\nTagged date                              : UTC 1904-01-01 00:00:00\n\nAudio\nID                                       : 2\nFormat                                   : AAC\nFormat/Info                              : Advanced Audio Codec\nFormat profile                           : LC\nCodec ID                                 : 40\nDuration                                 : 2h 9mn\nBit rate mode                            : Constant\nBit rate                                 : 224 Kbps\nChannel(s)                               : 2 channels\nChannel(s)_Original                      : 6 channels\nChannel positions                        : Front: L C R, Side: L R, LFE\nSampling rate                            : 48.0 KHz\nCompression mode                         : Lossy\nStream size                              : 207 MiB (8%)\nLanguage                                 : English\nEncoded date                             : UTC 1904-01-01 00:00:00\nTagged date                              : UTC 1904-01-01 00:00:00\n\nMenu #1\nID                                       : 3\nCodec ID                                 : text\nDuration                                 : 2h 9mn\nLanguage                                 : English\nEncoded date                             : UTC 1904-01-01 00:00:00\nTagged date                              : UTC 1904-01-01 00:00:00\nBit rate mode                            : CBR\n00:00:00.000                             : 00:00:00.000\n00:05:48.391                             : 00:05:48.348\n00:08:58.581                             : 00:08:58.538\n00:13:24.889                             : 00:13:24.846\n00:15:26.719                             : 00:15:26.676\n00:19:21.412                             : 00:19:21.369\n00:22:19.339                             : 00:22:19.296\n00:25:50.801                             : 00:25:50.758\n00:34:41.497                             : 00:34:41.454\n00:41:11.220                             : 00:41:11.177\n00:43:13.884                             : 00:43:13.841\n00:48:04.967                             : 00:48:04.924\n00:55:29.995                             : 00:55:29.952\n00:57:24.359                             : 00:57:24.316\n01:01:23.139                             : 01:01:23.096\n01:06:03.502                             : 01:06:03.459\n01:10:51.040                             : 01:10:50.997\n01:14:02.898                             : 01:14:02.855\n01:18:48.600                             : 01:18:48.557\n01:28:10.578                             : 01:28:10.535\n01:37:34.892                             : 01:37:34.849\n01:40:24.687                             : 01:40:24.644\n01:45:38.125                             : 01:45:38.082\n01:53:12.787                             : 01:53:12.744\n02:02:03.818                             : 02:02:03.775\n02:04:34.552                             : 02:04:34.509\n\nMenu #2\n00:00:00.043                             : 00:00:00.000\n00:05:48.391                             : 00:05:48.348\n00:08:58.581                             : 00:08:58.538\n00:13:24.889                             : 00:13:24.846\n00:15:26.719                             : 00:15:26.676\n00:19:21.412                             : 00:19:21.369\n00:22:19.339                             : 00:22:19.296\n00:25:50.801                             : 00:25:50.758\n00:34:41.497                             : 00:34:41.454\n00:41:11.220                             : 00:41:11.177\n00:43:13.884                             : 00:43:13.841\n00:48:04.967                             : 00:48:04.924\n00:55:29.995                             : 00:55:29.952\n00:57:24.359                             : 00:57:24.316\n01:01:23.139                             : 01:01:23.096\n01:06:03.502                             : 01:06:03.459\n01:10:51.040                             : 01:10:50.997\n01:14:02.898                             : 01:14:02.855\n01:18:48.600                             : 01:18:48.557\n01:28:10.578                             : 01:28:10.535\n01:37:34.892                             : 01:37:34.849\n01:40:24.687                             : 01:40:24.644\n01:45:38.125                             : 01:45:38.082\n01:53:12.787                             : 01:53:12.744\n02:02:03.818                             : 02:02:03.775\n02:04:34.552                             : 02:04:34.509","torrent":{"xt":"urn:btih:454a6706a5f973032349318a5ee919ff2a1097da","amp;dn":"McFarland.USA.2015.1080p.BluRay.H264.AAC-RARBG","amp;tr":["udp%3A%2F%2Ftracker.openbittorrent.com%3A80","udp%3A%2F%2Fopen.demonii.com%3A1337","udp%3A%2F%2Ftracker.coppersurfer.tk%3A6969","udp%3A%2F%2Fexodus.desync.com%3A6969"],"infoHash":"454a6706a5f973032349318a5ee919ff2a1097da","infoHashBuffer":{"type":"Buffer","data":[69,74,103,6,165,249,115,3,35,73,49,138,94,233,25,255,42,16,151,218]},"announce":[],"urlList":[]}}